<svg width="22" height="29" viewBox="0 0 22 29" fill="none" xmlns="http://www.w3.org/2000/svg">
<path d="M15.3005 0.315063H4.10527C2.46974 0.315063 1.13854 1.6451 1.13854 3.27726V14.2307H0.848724C0.188614 14.2307 -0.346619 14.7647 -0.346619 15.4243V22.6632C-0.346619 23.3228 0.188614 23.8569 0.848724 23.8569H1.13854V25.1842C1.13854 26.8181 2.4698 28.1464 4.10527 28.1464H19.3808C21.0154 28.1464 22.3466 26.8181 22.3466 25.1842V7.32565L15.3005 0.315063ZM5.363 20.8191C5.70612 20.8191 6.08653 20.7446 6.31073 20.6555L6.48191 21.5415C6.27326 21.6461 5.80313 21.7581 5.19175 21.7581C3.45337 21.7581 2.55814 20.6782 2.55814 19.248C2.55814 17.535 3.78175 16.5816 5.30345 16.5816C5.89291 16.5816 6.34033 16.7007 6.54163 16.8045L6.31073 17.706C6.07924 17.6087 5.75855 17.5196 5.35577 17.5196C4.45279 17.5196 3.75169 18.0635 3.75169 19.1808C3.75169 20.186 4.34849 20.8191 5.363 20.8191ZM19.3807 26.3323H4.10527C3.47199 26.3323 2.95624 25.8174 2.95624 25.1842V23.8569H17.1962C17.8564 23.8569 18.3917 23.3228 18.3917 22.6632V15.4243C18.3917 14.7647 17.8564 14.2307 17.1962 14.2307H2.95624V3.27726C2.95624 2.64581 3.47199 2.13091 4.10527 2.13091L14.6209 2.12V6.00099C14.6209 7.13453 15.5421 8.05523 16.6783 8.05523L20.4859 8.04438L20.5287 25.1842C20.5287 25.8174 20.014 26.3323 19.3807 26.3323ZM8.4838 19.5756C7.64817 19.2854 7.1034 18.8232 7.1034 18.0935C7.1034 17.2364 7.81947 16.5815 9.00579 16.5815C9.57254 16.5815 9.99081 16.7006 10.2887 16.8344L10.0354 17.7506C9.83408 17.6541 9.47593 17.5121 8.98348 17.5121C8.49103 17.5121 8.25232 17.736 8.25232 17.9963C8.25232 18.3165 8.53566 18.4584 9.18484 18.704C10.0728 19.0316 10.4905 19.4937 10.4905 20.2015C10.4905 21.043 9.84131 21.7581 8.46137 21.7581C7.88688 21.7581 7.31974 21.6089 7.03639 21.4524L7.26776 20.5144C7.57354 20.6709 8.04367 20.8265 8.52837 20.8265C9.05048 20.8265 9.32654 20.6108 9.32654 20.2833C9.3266 19.9704 9.08789 19.7912 8.4838 19.5756ZM12.5143 19.5756C11.6788 19.2854 11.1339 18.8232 11.1339 18.0935C11.1339 17.2364 11.8501 16.5815 13.0363 16.5815C13.6036 16.5815 14.0208 16.7006 14.3197 16.8344L14.066 17.7506C13.8646 17.6541 13.5065 17.5121 13.014 17.5121C12.5216 17.5121 12.2829 17.736 12.2829 17.9963C12.2829 18.3165 12.5662 18.4584 13.2155 18.704C14.1033 19.0316 14.5212 19.4937 14.5212 20.2015C14.5212 21.043 13.872 21.7581 12.492 21.7581C11.9175 21.7581 11.3503 21.6089 11.0669 21.4524L11.2984 20.5144C11.6041 20.6709 12.0742 20.8265 12.5589 20.8265C13.081 20.8265 13.3571 20.6108 13.3571 20.2833C13.3571 19.9704 13.1183 19.7912 12.5143 19.5756Z" fill="#2A7AE4"/>
</svg>
