<!-- Generated by IcoMoon.io -->
<svg version="1.1" xmlns="http://www.w3.org/2000/svg" width="1024" height="1024" viewBox="0 0 1024 1024">
<title></title>
<g id="icomoon-ignore">
</g>
<path fill="#2A7AE4" d="M192 352v480.040c0 17.924 14.434 31.96 32.239 31.96h447.761v-159.811c0-35.82 28.624-64.189 63.933-64.189h128.067v-288h-672zM192 320h672v-95.781c0-17.821-14.309-32.219-31.96-32.219h-608.080c-17.924 0-31.96 14.309-31.96 31.96v96.040zM688 896h-463.997c-35.348 0-64.003-28.852-64.003-64.028v-607.945c0-35.361 28.852-64.028 64.028-64.028h607.945c35.361 0 64.028 28.624 64.028 63.81v448.19l-192 224h-16zM704 848l150.398-176h-118.503c-17.475 0-31.896 14.453-31.896 32.281v143.719zM256 448v32h544v-32h-544zM256 544v32h544v-32h-544zM256 640v32h352v-32h-352zM256 736v32h352v-32h-352z"></path>
</svg>
