<!-- Generated by IcoMoon.io -->
<svg version="1.1" xmlns="http://www.w3.org/2000/svg" width="1054" height="1024" viewBox="0 0 1054 1024">
<title></title>
<g id="icomoon-ignore">
</g>
<path fill="#2A7AE4" d="M736.448 142.688c-45.312 0-133.312 64-208 64-74.656 0-168-64-208-64-274.656 0-432 738.624-226.656 738.624 173.344 0 196.672-216 433.984-216 192 0 304.672 213.376 432.672 213.376 205.312 0 50.688-736-224-736zM304.416 558.688c-79.52 0-144-64.512-144-144 0-79.52 64.48-144 144-144s144 64.48 144 144c0 79.488-64.448 144-144 144zM686.432 478.688c-17.696 0-32-14.304-32-32s14.304-32 32-32 32 14.304 32 32-14.304 32-32 32zM784.448 574.688c-17.696 0-32-14.304-32-32s14.304-32 32-32 32 14.304 32 32-14.336 32-32 32zM784.448 382.688c-17.696 0-32-14.304-32-32s14.304-32 32-32 32 14.304 32 32-14.336 32-32 32zM880.448 478.688c-17.696 0-32-14.304-32-32s14.304-32 32-32 32 14.304 32 32-14.336 32-32 32zM304.416 334.688c-44.16 0-80 35.808-80 80s35.84 80 80 80c44.192 0 80-35.808 80-80s-35.808-80-80-80z"></path>
</svg>
