<!-- Generated by IcoMoon.io -->
<svg version="1.1" xmlns="http://www.w3.org/2000/svg" width="448" height="448" viewBox="0 0 448 448">
<title></title>
<g id="icomoon-ignore">
</g>
<path fill="#2A7AE4" d="M152.25 204l71.75-52 71.75 52-27.25 84h-88.75zM224 0c123.75 0 224 100.25 224 224s-100.25 224-224 224-224-100.25-224-224 100.25-224 224-224zM378.75 337.5c23.5-32 37.25-71 37.25-113.5v-0.75l-25.5 22.25-60-56 15.75-80.75 33.5 3c-23.75-32.75-57.75-58-97.25-70.5l13.25 31-71.75 39.75-71.75-39.75 13.25-31c-39.5 12.5-73.5 37.75-97.25 70.5l33.75-3 15.5 80.75-60 56-25.5-22.25v0.75c0 42.5 13.75 81.5 37.25 113.5l7.5-33 81.5 10 34.75 74.5-29 17.25c18.75 6.25 39 9.75 60 9.75s41.25-3.5 60-9.75l-29-17.25 34.75-74.5 81.5-10z"></path>
</svg>
